<mxfile host="app.diagrams.net" modified="2020-11-25T22:29:46.146Z" agent="5.0 (Windows NT 10.0; Win64; x64) AppleWebKit/537.36 (KHTML, like Gecko) Chrome/86.0.4240.198 Safari/537.36" etag="ocUzO9RBeVM_P9276cCA" version="13.10.3" type="github">
  <diagram id="OmimlcPRNOlS36g1BJqZ" name="Page-1">
    <mxGraphModel dx="757" dy="739" grid="1" gridSize="10" guides="1" tooltips="1" connect="1" arrows="1" fold="1" page="1" pageScale="1" pageWidth="850" pageHeight="1100" math="0" shadow="0">
      <root>
        <mxCell id="0" />
        <mxCell id="1" parent="0" />
        <mxCell id="3tPBRp_03eay5XD3Fdpg-42" value="vehab.regions" style="shape=table;startSize=40;container=1;collapsible=1;childLayout=tableLayout;fixedRows=1;rowLines=0;fontStyle=1;align=center;resizeLast=1;strokeColor=#000000;" vertex="1" parent="1">
          <mxGeometry x="560" y="350" width="180" height="100" as="geometry" />
        </mxCell>
        <mxCell id="3tPBRp_03eay5XD3Fdpg-43" value="" style="shape=partialRectangle;collapsible=0;dropTarget=0;pointerEvents=0;fillColor=none;top=0;left=0;bottom=0;right=0;points=[[0,0.5],[1,0.5]];portConstraint=eastwest;" vertex="1" parent="3tPBRp_03eay5XD3Fdpg-42">
          <mxGeometry y="40" width="180" height="30" as="geometry" />
        </mxCell>
        <mxCell id="3tPBRp_03eay5XD3Fdpg-44" value="PK" style="shape=partialRectangle;connectable=0;fillColor=none;top=0;left=0;bottom=0;right=0;fontStyle=1;overflow=hidden;" vertex="1" parent="3tPBRp_03eay5XD3Fdpg-43">
          <mxGeometry width="60" height="30" as="geometry" />
        </mxCell>
        <mxCell id="3tPBRp_03eay5XD3Fdpg-45" value="region_Id" style="shape=partialRectangle;connectable=0;fillColor=none;top=0;left=0;bottom=0;right=0;align=left;spacingLeft=6;fontStyle=5;overflow=hidden;" vertex="1" parent="3tPBRp_03eay5XD3Fdpg-43">
          <mxGeometry x="60" width="120" height="30" as="geometry" />
        </mxCell>
        <mxCell id="3tPBRp_03eay5XD3Fdpg-46" value="" style="shape=partialRectangle;collapsible=0;dropTarget=0;pointerEvents=0;fillColor=none;top=0;left=0;bottom=1;right=0;points=[[0,0.5],[1,0.5]];portConstraint=eastwest;strokeColor=none;" vertex="1" parent="3tPBRp_03eay5XD3Fdpg-42">
          <mxGeometry y="70" width="180" height="30" as="geometry" />
        </mxCell>
        <mxCell id="3tPBRp_03eay5XD3Fdpg-47" value="" style="shape=partialRectangle;connectable=0;fillColor=none;top=0;left=0;bottom=0;right=0;fontStyle=1;overflow=hidden;" vertex="1" parent="3tPBRp_03eay5XD3Fdpg-46">
          <mxGeometry width="60" height="30" as="geometry" />
        </mxCell>
        <mxCell id="3tPBRp_03eay5XD3Fdpg-48" value="region_name" style="shape=partialRectangle;connectable=0;fillColor=none;top=0;left=0;bottom=0;right=0;align=left;spacingLeft=6;fontStyle=5;overflow=hidden;strokeColor=none;" vertex="1" parent="3tPBRp_03eay5XD3Fdpg-46">
          <mxGeometry x="60" width="120" height="30" as="geometry" />
        </mxCell>
        <mxCell id="3tPBRp_03eay5XD3Fdpg-56" value="vehab.countries" style="shape=table;startSize=30;container=1;collapsible=1;childLayout=tableLayout;fixedRows=1;rowLines=0;fontStyle=1;align=center;resizeLast=1;strokeColor=#000000;" vertex="1" parent="1">
          <mxGeometry x="560" y="210" width="180" height="110" as="geometry" />
        </mxCell>
        <mxCell id="3tPBRp_03eay5XD3Fdpg-57" value="" style="shape=partialRectangle;collapsible=0;dropTarget=0;pointerEvents=0;fillColor=none;top=0;left=0;bottom=1;right=0;points=[[0,0.5],[1,0.5]];portConstraint=eastwest;strokeColor=none;" vertex="1" parent="3tPBRp_03eay5XD3Fdpg-56">
          <mxGeometry y="30" width="180" height="30" as="geometry" />
        </mxCell>
        <mxCell id="3tPBRp_03eay5XD3Fdpg-58" value="PK" style="shape=partialRectangle;connectable=0;fillColor=none;top=0;left=0;bottom=0;right=0;fontStyle=1;overflow=hidden;" vertex="1" parent="3tPBRp_03eay5XD3Fdpg-57">
          <mxGeometry width="30" height="30" as="geometry" />
        </mxCell>
        <mxCell id="3tPBRp_03eay5XD3Fdpg-59" value="country_Id" style="shape=partialRectangle;connectable=0;fillColor=none;top=0;left=0;bottom=0;right=0;align=left;spacingLeft=6;fontStyle=5;overflow=hidden;" vertex="1" parent="3tPBRp_03eay5XD3Fdpg-57">
          <mxGeometry x="30" width="150" height="30" as="geometry" />
        </mxCell>
        <mxCell id="3tPBRp_03eay5XD3Fdpg-60" value="" style="shape=partialRectangle;collapsible=0;dropTarget=0;pointerEvents=0;fillColor=none;top=0;left=0;bottom=0;right=0;points=[[0,0.5],[1,0.5]];portConstraint=eastwest;" vertex="1" parent="3tPBRp_03eay5XD3Fdpg-56">
          <mxGeometry y="60" width="180" height="20" as="geometry" />
        </mxCell>
        <mxCell id="3tPBRp_03eay5XD3Fdpg-61" value="" style="shape=partialRectangle;connectable=0;fillColor=none;top=0;left=0;bottom=0;right=0;editable=1;overflow=hidden;" vertex="1" parent="3tPBRp_03eay5XD3Fdpg-60">
          <mxGeometry width="30" height="20" as="geometry" />
        </mxCell>
        <mxCell id="3tPBRp_03eay5XD3Fdpg-62" value="country_name" style="shape=partialRectangle;connectable=0;fillColor=none;top=0;left=0;bottom=0;right=0;align=left;spacingLeft=6;overflow=hidden;" vertex="1" parent="3tPBRp_03eay5XD3Fdpg-60">
          <mxGeometry x="30" width="150" height="20" as="geometry" />
        </mxCell>
        <mxCell id="3tPBRp_03eay5XD3Fdpg-63" value="" style="shape=partialRectangle;collapsible=0;dropTarget=0;pointerEvents=0;fillColor=none;top=0;left=0;bottom=0;right=0;points=[[0,0.5],[1,0.5]];portConstraint=eastwest;" vertex="1" parent="3tPBRp_03eay5XD3Fdpg-56">
          <mxGeometry y="80" width="180" height="30" as="geometry" />
        </mxCell>
        <mxCell id="3tPBRp_03eay5XD3Fdpg-64" value="FK" style="shape=partialRectangle;connectable=0;fillColor=none;top=0;left=0;bottom=0;right=0;editable=1;overflow=hidden;" vertex="1" parent="3tPBRp_03eay5XD3Fdpg-63">
          <mxGeometry width="30" height="30" as="geometry" />
        </mxCell>
        <mxCell id="3tPBRp_03eay5XD3Fdpg-65" value="region_id" style="shape=partialRectangle;connectable=0;fillColor=none;top=0;left=0;bottom=0;right=0;align=left;spacingLeft=6;overflow=hidden;" vertex="1" parent="3tPBRp_03eay5XD3Fdpg-63">
          <mxGeometry x="30" width="150" height="30" as="geometry" />
        </mxCell>
      </root>
    </mxGraphModel>
  </diagram>
</mxfile>
